<?xml version="1.0" encoding="utf-8"?>
<!-- Generator: Adobe Illustrator 19.1.0, SVG Export Plug-In . SVG Version: 6.00 Build 0)  -->
<svg version="1.1" id="Calque_1" xmlns="http://www.w3.org/2000/svg" xmlns:xlink="http://www.w3.org/1999/xlink" x="0px" y="0px"
	 viewBox="0 0 280 63" style="enable-background:new 0 0 280 63;" xml:space="preserve">
<style type="text/css">
	.st0{fill:#4C9FDC;}
	.st1{fill:#005DB4;}
</style>
<g>
	<g id="baseline">
		<g>
			<path class="st0" d="M171.4,25v3.3c0,0-0.6,0.2-1.4,0.2c-1.8,0-2.5-1.2-2.5-3.3c0-2.3,0.8-3.5,2.6-3.5c0.7,0,1.2,0.2,1.2,0.2v0.6
				h-0.1c0,0-0.5-0.2-1.1-0.2c-1.2,0-1.9,0.8-1.9,2.8c0,2,0.7,2.8,1.8,2.8c0.4,0,0.8-0.1,0.8-0.1v-2.2h-1V25H171.4z"/>
			<path class="st0" d="M175.2,28.3c0,0-0.5,0.2-1.1,0.2c-0.7,0-1.2-0.2-1.4-0.6c-0.3-0.4-0.4-1.1-0.4-1.9c0-1.5,0.4-2.5,1.6-2.5
				c0.6,0,1,0.2,1.2,0.7c0.3,0.5,0.3,1.2,0.3,2H173c0,1.2,0.4,1.7,1.2,1.7c0.5,0,1-0.2,1-0.2h0.1V28.3z M174.7,25.7
				c0-1.1-0.2-1.6-0.8-1.6c-0.6,0-0.9,0.7-0.9,1.6H174.7z M173.7,22.9l0.7-1.2h0.7l-0.9,1.2H173.7z"/>
			<path class="st0" d="M179.3,28c-0.3,0.4-0.7,0.6-1.3,0.6c-0.6,0-1-0.2-1.3-0.6c-0.3-0.4-0.4-1-0.4-1.9c0-1,0.1-1.6,0.4-2
				c0.3-0.4,0.7-0.6,1.3-0.6c0.5,0,1,0.2,1.3,0.6c0.3,0.4,0.4,1,0.4,1.9C179.7,27,179.6,27.6,179.3,28z M178.7,27.7
				c0.2-0.3,0.3-0.7,0.3-1.6c0-0.9-0.1-1.3-0.3-1.6c-0.1-0.2-0.4-0.4-0.7-0.4c-0.3,0-0.6,0.1-0.7,0.4c-0.2,0.3-0.3,0.7-0.3,1.6
				c0,0.9,0.1,1.3,0.3,1.6c0.1,0.2,0.4,0.4,0.7,0.4C178.3,28,178.6,27.9,178.7,27.7z"/>
			<path class="st0" d="M181.3,23.6l0.2,0.7c0.1-0.5,0.4-0.8,1.1-0.8c0.6,0,1,0.3,1.2,0.8c0.1-0.5,0.5-0.8,1.2-0.8
				c0.6,0,0.9,0.2,1.1,0.5c0.2,0.3,0.2,0.7,0.2,1.2v3.2h-0.7v-3.2c0-0.4,0-0.6-0.1-0.8c-0.1-0.2-0.3-0.3-0.7-0.3
				c-0.8,0-0.8,0.7-0.8,1v3.3h-0.7v-3.2c0-0.4,0-0.6-0.1-0.8c-0.1-0.2-0.3-0.3-0.7-0.3c-0.8,0-0.8,0.7-0.8,1v3.3h-0.7v-4.8H181.3z"
				/>
			<path class="st0" d="M190.1,28.3c0,0-0.5,0.2-1.1,0.2c-0.7,0-1.2-0.2-1.4-0.6c-0.3-0.4-0.4-1.1-0.4-1.9c0-1.5,0.4-2.5,1.6-2.5
				c0.6,0,1,0.2,1.2,0.7c0.3,0.5,0.3,1.2,0.3,2h-2.4c0,1.2,0.4,1.7,1.2,1.7c0.5,0,1-0.2,1-0.2h0.1V28.3z M188.6,22.9l-0.9-1.2h0.7
				l0.7,1.2H188.6z M189.6,25.7c0-1.1-0.2-1.6-0.8-1.6c-0.6,0-0.9,0.7-0.9,1.6H189.6z"/>
			<path class="st0" d="M193.4,28.4c0,0-0.3,0.1-0.7,0.1c-0.4,0-0.8-0.1-1-0.4c-0.2-0.3-0.2-0.6-0.2-1.1v-2.8h-0.7v-0.6h0.7v-1.3
				l0.7-0.2v1.5h1.1v0.6h-1.1V27c0,0.3,0,0.6,0.1,0.7c0.1,0.1,0.2,0.2,0.5,0.2c0.3,0,0.5-0.1,0.5-0.1h0.1V28.4z"/>
			<path class="st0" d="M196.3,24.3c0,0-0.2,0-0.4,0c-0.8,0-0.9,0.7-0.9,1.1v3.1h-0.7v-4.8h0.5l0.2,0.8c0.2-0.7,0.6-0.8,1.2-0.8h0.1
				V24.3z"/>
			<path class="st0" d="M199.7,28.3c0,0-0.5,0.2-1.1,0.2c-0.7,0-1.2-0.2-1.4-0.6c-0.3-0.4-0.4-1.1-0.4-1.9c0-1.5,0.4-2.5,1.6-2.5
				c0.6,0,1,0.2,1.2,0.7c0.3,0.5,0.3,1.2,0.3,2h-2.4c0,1.2,0.4,1.7,1.2,1.7c0.5,0,1-0.2,1-0.2h0.1V28.3z M199.2,25.7
				c0-1.1-0.2-1.6-0.8-1.6c-0.6,0-0.9,0.7-0.9,1.6H199.2z"/>
			<path class="st0" d="M203.1,24.3L203.1,24.3c-0.1,0-0.5-0.2-0.9-0.2c-0.5,0-0.7,0.2-0.7,0.6c0,0.5,0.5,0.7,1,1.1
				c0.5,0.3,0.8,0.7,0.8,1.3c0,0.9-0.6,1.3-1.5,1.3c-0.6,0-0.9-0.2-0.9-0.2v-0.6h0.1c0,0,0.4,0.2,0.9,0.2c0.5,0,0.8-0.3,0.8-0.7
				c0-0.5-0.4-0.8-0.9-1.1c-0.4-0.3-0.8-0.6-0.8-1.3c0-0.8,0.5-1.3,1.4-1.3c0.5,0,0.9,0.1,0.9,0.1V24.3z"/>
			<path class="st0" d="M203.9,26v-0.6h2.2V26H203.9z"/>
			<path class="st0" d="M210,21.8v0.6h-2.1v2.3h1.8v0.6h-1.8v2.6h2.2v0.6h-2.9v-6.7H210z"/>
			<path class="st0" d="M211.6,23.6l0.9,1.8l0.9-1.8h0.7l-1.2,2.3l1.3,2.5h-0.8l-1-2l-1,2h-0.7L212,26l-1.2-2.4H211.6z"/>
			<path class="st0" d="M215,30.2v-6.5h0.5l0.2,0.8c0.1-0.5,0.5-0.8,1.2-0.8c0.5,0,0.9,0.2,1.1,0.6c0.3,0.4,0.4,1,0.4,1.9
				c0,0.9-0.1,1.6-0.4,2c-0.2,0.4-0.7,0.6-1.2,0.6c-0.6,0-0.9-0.3-1.1-0.7v2.3H215z M217.4,27.6c0.2-0.3,0.3-0.8,0.3-1.6
				c0-0.8-0.1-1.3-0.3-1.6c-0.2-0.2-0.4-0.4-0.7-0.4c-0.3,0-0.6,0.1-0.7,0.4c-0.2,0.3-0.3,0.8-0.3,1.6c0,0.8,0.1,1.3,0.3,1.6
				c0.2,0.2,0.4,0.4,0.7,0.4C217,28,217.2,27.8,217.4,27.6z"/>
			<path class="st0" d="M222.2,28.3c0,0-0.5,0.2-1.1,0.2c-0.7,0-1.2-0.2-1.4-0.6c-0.3-0.4-0.4-1.1-0.4-1.9c0-1.5,0.4-2.5,1.6-2.5
				c0.6,0,1,0.2,1.2,0.7c0.3,0.5,0.3,1.2,0.3,2h-2.4c0,1.2,0.4,1.7,1.2,1.7c0.5,0,1-0.2,1-0.2h0.1V28.3z M221.6,25.7
				c0-1.1-0.2-1.6-0.8-1.6c-0.6,0-0.9,0.7-0.9,1.6H221.6z"/>
			<path class="st0" d="M225.4,24.3c0,0-0.2,0-0.4,0c-0.8,0-0.9,0.7-0.9,1.1v3.1h-0.7v-4.8h0.5l0.2,0.8c0.2-0.7,0.6-0.8,1.2-0.8h0.1
				V24.3z"/>
			<path class="st0" d="M228.3,28.4c0,0-0.3,0.1-0.7,0.1c-0.4,0-0.8-0.1-1-0.4c-0.2-0.3-0.2-0.6-0.2-1.1v-2.8h-0.7v-0.6h0.7v-1.3
				l0.7-0.2v1.5h1.1v0.6h-1.1V27c0,0.3,0,0.6,0.1,0.7c0.1,0.1,0.2,0.2,0.5,0.2c0.3,0,0.5-0.1,0.5-0.1h0.1V28.4z"/>
			<path class="st0" d="M231.4,24.3L231.4,24.3c-0.1,0-0.5-0.2-0.9-0.2c-0.5,0-0.7,0.2-0.7,0.6c0,0.5,0.5,0.7,1,1.1
				c0.5,0.3,0.8,0.7,0.8,1.3c0,0.9-0.6,1.3-1.5,1.3c-0.6,0-0.9-0.2-0.9-0.2v-0.6h0.1c0,0,0.4,0.2,0.9,0.2c0.5,0,0.8-0.3,0.8-0.7
				c0-0.5-0.4-0.8-0.9-1.1c-0.4-0.3-0.8-0.6-0.8-1.3c0-0.8,0.5-1.3,1.4-1.3c0.5,0,0.9,0.1,0.9,0.1V24.3z"/>
			<path class="st0" d="M235.2,21.8v6.7h-0.7v-6.7H235.2z"/>
			<path class="st0" d="M237,23.6l0.2,0.7c0.1-0.5,0.5-0.8,1.1-0.8c0.6,0,0.9,0.2,1.1,0.5c0.2,0.3,0.2,0.8,0.2,1.3v3.1h-0.7v-3.1
				c0-0.3,0-0.6-0.1-0.8c-0.1-0.2-0.3-0.3-0.7-0.3c-0.8,0-0.9,0.7-0.9,1v3.3h-0.7v-4.8H237z"/>
			<path class="st0" d="M244,21.6v6.9h-0.5l-0.2-0.8c-0.1,0.5-0.5,0.8-1.2,0.8c-0.5,0-0.9-0.2-1.1-0.6c-0.3-0.4-0.4-1-0.4-1.9
				c0-0.9,0.1-1.5,0.4-1.9c0.2-0.4,0.7-0.6,1.2-0.6c0.6,0,0.9,0.3,1.1,0.7v-2.7H244z M241.6,24.5c-0.2,0.3-0.3,0.8-0.3,1.6
				c0,0.8,0.1,1.3,0.3,1.6c0.2,0.2,0.4,0.4,0.7,0.4c0.3,0,0.6-0.1,0.7-0.4c0.2-0.3,0.3-0.8,0.3-1.6c0-0.8-0.1-1.3-0.3-1.6
				c-0.2-0.2-0.4-0.4-0.7-0.4C242,24.1,241.7,24.2,241.6,24.5z"/>
			<path class="st0" d="M247.9,28.3c0,0-0.5,0.2-1.1,0.2c-0.7,0-1.2-0.2-1.4-0.6c-0.3-0.4-0.4-1.1-0.4-1.9c0-1.5,0.4-2.5,1.6-2.5
				c0.6,0,1,0.2,1.2,0.7c0.3,0.5,0.3,1.2,0.3,2h-2.4c0,1.2,0.4,1.7,1.2,1.7c0.5,0,1-0.2,1-0.2h0.1V28.3z M247.4,25.7
				c0-1.1-0.2-1.6-0.8-1.6c-0.6,0-0.9,0.7-0.9,1.6H247.4z M246.4,22.9l0.7-1.2h0.7l-0.9,1.2H246.4z"/>
			<path class="st0" d="M249.2,30.2v-6.5h0.5l0.2,0.8c0.1-0.5,0.5-0.8,1.2-0.8c0.5,0,0.9,0.2,1.1,0.6c0.3,0.4,0.4,1,0.4,1.9
				c0,0.9-0.1,1.6-0.4,2c-0.2,0.4-0.7,0.6-1.2,0.6c-0.6,0-0.9-0.3-1.1-0.7v2.3H249.2z M251.6,27.6c0.2-0.3,0.3-0.8,0.3-1.6
				c0-0.8-0.1-1.3-0.3-1.6c-0.2-0.2-0.4-0.4-0.7-0.4c-0.3,0-0.6,0.1-0.7,0.4c-0.2,0.3-0.3,0.8-0.3,1.6c0,0.8,0.1,1.3,0.3,1.6
				c0.2,0.2,0.4,0.4,0.7,0.4C251.2,28,251.4,27.8,251.6,27.6z"/>
			<path class="st0" d="M256.3,28.3c0,0-0.5,0.2-1.1,0.2c-0.7,0-1.2-0.2-1.4-0.6c-0.3-0.4-0.4-1.1-0.4-1.9c0-1.5,0.4-2.5,1.6-2.5
				c0.6,0,1,0.2,1.2,0.7c0.3,0.5,0.3,1.2,0.3,2h-2.4c0,1.2,0.4,1.7,1.2,1.7c0.5,0,1-0.2,1-0.2h0.1V28.3z M255.8,25.7
				c0-1.1-0.2-1.6-0.8-1.6c-0.6,0-0.9,0.7-0.9,1.6H255.8z"/>
			<path class="st0" d="M258.1,23.6l0.2,0.7c0.1-0.5,0.5-0.8,1.1-0.8c0.6,0,0.9,0.2,1.1,0.5c0.2,0.3,0.2,0.8,0.2,1.3v3.1H260v-3.1
				c0-0.3,0-0.6-0.1-0.8c-0.1-0.2-0.3-0.3-0.7-0.3c-0.8,0-0.9,0.7-0.9,1v3.3h-0.7v-4.8H258.1z"/>
			<path class="st0" d="M265,21.6v6.9h-0.5l-0.2-0.8c-0.1,0.5-0.5,0.8-1.2,0.8c-0.5,0-0.9-0.2-1.1-0.6c-0.3-0.4-0.4-1-0.4-1.9
				c0-0.9,0.1-1.5,0.4-1.9c0.2-0.4,0.7-0.6,1.2-0.6c0.6,0,0.9,0.3,1.1,0.7v-2.7H265z M262.7,24.5c-0.2,0.3-0.3,0.8-0.3,1.6
				c0,0.8,0.1,1.3,0.3,1.6c0.2,0.2,0.4,0.4,0.7,0.4c0.3,0,0.6-0.1,0.7-0.4c0.2-0.3,0.3-0.8,0.3-1.6c0-0.8-0.1-1.3-0.3-1.6
				c-0.2-0.2-0.4-0.4-0.7-0.4C263,24.1,262.8,24.2,262.7,24.5z"/>
			<path class="st0" d="M266.3,23.8c0,0,0.5-0.2,1.2-0.2c0.6,0,1.1,0.1,1.3,0.5c0.2,0.3,0.2,0.7,0.2,1.2v2.1c0,0.2,0,0.5,0.4,0.5
				c0.1,0,0.2,0,0.2,0v0.5c0,0-0.2,0.1-0.4,0.1c-0.5,0-0.7-0.2-0.8-0.8c-0.1,0.5-0.5,0.8-1.1,0.8c-0.7,0-1.2-0.5-1.2-1.4
				c0-0.9,0.5-1.5,1.9-1.5c0.2,0,0.4,0,0.4,0c0-0.7,0-1-0.1-1.2c-0.1-0.2-0.4-0.3-0.8-0.3c-0.5,0-1,0.2-1,0.2h-0.1V23.8z M267.4,28
				c0.3,0,0.6-0.1,0.7-0.4c0.2-0.3,0.2-0.7,0.2-1v-0.4h-0.2c-0.6,0-1.4,0.1-1.4,1C266.7,27.6,266.9,28,267.4,28z"/>
			<path class="st0" d="M270.8,23.6l0.2,0.7c0.1-0.5,0.5-0.8,1.1-0.8c0.6,0,0.9,0.2,1.1,0.5c0.2,0.3,0.2,0.8,0.2,1.3v3.1h-0.7v-3.1
				c0-0.3,0-0.6-0.1-0.8c-0.1-0.2-0.3-0.3-0.7-0.3c-0.8,0-0.9,0.7-0.9,1v3.3h-0.7v-4.8H270.8z"/>
			<path class="st0" d="M276.8,28.4c0,0-0.3,0.1-0.7,0.1c-0.4,0-0.8-0.1-1-0.4c-0.2-0.3-0.2-0.6-0.2-1.1v-2.8h-0.7v-0.6h0.7v-1.3
				l0.7-0.2v1.5h1.1v0.6h-1.1V27c0,0.3,0,0.6,0.1,0.7c0.1,0.1,0.2,0.2,0.5,0.2c0.3,0,0.5-0.1,0.5-0.1h0.1V28.4z"/>
			<path class="st0" d="M279.9,24.3L279.9,24.3c-0.1,0-0.5-0.2-0.9-0.2c-0.5,0-0.7,0.2-0.7,0.6c0,0.5,0.5,0.7,1,1.1
				c0.5,0.3,0.8,0.7,0.8,1.3c0,0.9-0.6,1.3-1.5,1.3c-0.6,0-0.9-0.2-0.9-0.2v-0.6h0.1c0,0,0.4,0.2,0.9,0.2c0.5,0,0.8-0.3,0.8-0.7
				c0-0.5-0.4-0.8-0.9-1.1c-0.4-0.3-0.8-0.6-0.8-1.3c0-0.8,0.5-1.3,1.4-1.3c0.5,0,0.9,0.1,0.9,0.1V24.3z"/>
			<path class="st0" d="M170.4,39c0,0-0.5,0.2-1.1,0.2c-0.7,0-1.2-0.2-1.4-0.6c-0.3-0.4-0.4-1.1-0.4-1.9c0-1.5,0.4-2.5,1.6-2.5
				c0.6,0,1,0.2,1.2,0.7c0.3,0.5,0.3,1.2,0.3,2h-2.4c0,1.2,0.4,1.7,1.2,1.7c0.5,0,1-0.2,1-0.2h0.1V39z M169.9,36.4
				c0-1.1-0.2-1.6-0.8-1.6c-0.6,0-0.9,0.7-0.9,1.6H169.9z"/>
			<path class="st0" d="M172.1,34.3l0.2,0.7c0.1-0.5,0.5-0.8,1.1-0.8c0.6,0,0.9,0.2,1.1,0.5c0.2,0.3,0.2,0.8,0.2,1.3v3.1H174V36
				c0-0.3,0-0.6-0.1-0.8c-0.1-0.2-0.3-0.3-0.7-0.3c-0.8,0-0.9,0.7-0.9,1v3.3h-0.7v-4.8H172.1z"/>
			<path class="st0" d="M179.1,32.5c0.4,0,1,0,1.4,0.3c0.5,0.3,0.7,0.9,0.7,1.8c0,0.9-0.3,1.5-0.7,1.8c-0.4,0.3-0.8,0.3-1.4,0.3
				h-0.6v2.5h-0.7v-6.7H179.1z M178.6,36h0.6c0.3,0,0.6,0,0.8-0.2c0.3-0.2,0.4-0.7,0.4-1.3c0-0.6-0.1-1.1-0.4-1.3
				c-0.2-0.2-0.6-0.2-0.8-0.2h-0.6V36z"/>
			<path class="st0" d="M184.1,35c0,0-0.2,0-0.4,0c-0.8,0-0.9,0.7-0.9,1.1v3.1h-0.7v-4.8h0.5l0.2,0.8c0.2-0.7,0.6-0.8,1.2-0.8h0.1
				V35z"/>
			<path class="st0" d="M187.6,38.7c-0.3,0.4-0.7,0.6-1.3,0.6c-0.6,0-1-0.2-1.3-0.6c-0.3-0.4-0.4-1-0.4-1.9c0-1,0.1-1.6,0.4-2
				c0.3-0.4,0.7-0.6,1.3-0.6c0.5,0,1,0.2,1.3,0.6c0.3,0.4,0.4,1,0.4,1.9C188,37.7,187.9,38.3,187.6,38.7z M187,38.4
				c0.2-0.3,0.3-0.7,0.3-1.6c0-0.9-0.1-1.3-0.3-1.6c-0.1-0.2-0.4-0.4-0.7-0.4c-0.3,0-0.6,0.1-0.7,0.4c-0.2,0.3-0.3,0.7-0.3,1.6
				c0,0.9,0.1,1.3,0.3,1.6c0.1,0.2,0.4,0.4,0.7,0.4C186.6,38.7,186.8,38.6,187,38.4z"/>
			<path class="st0" d="M189.4,34.3l1.1,4l1.1-4h0.6l-1.4,4.8H190l-1.4-4.8H189.4z"/>
			<path class="st0" d="M193.8,33c0,0.3-0.2,0.4-0.4,0.4c-0.3,0-0.4-0.2-0.4-0.4s0.2-0.4,0.4-0.4C193.7,32.5,193.8,32.7,193.8,33z
				 M193.7,34.3v4.8H193v-4.8H193.7z"/>
			<path class="st0" d="M195.5,34.3l0.2,0.7c0.1-0.5,0.5-0.8,1.1-0.8c0.6,0,0.9,0.2,1.1,0.5c0.2,0.3,0.2,0.8,0.2,1.3v3.1h-0.7V36
				c0-0.3,0-0.6-0.1-0.8c-0.1-0.2-0.3-0.3-0.7-0.3c-0.8,0-0.9,0.7-0.9,1v3.3H195v-4.8H195.5z"/>
			<path class="st0" d="M201.7,39.1c0,0-0.3,0.1-0.8,0.1c-1.4,0-1.8-1-1.8-2.5c0-1.5,0.5-2.5,1.8-2.5c0.5,0,0.8,0.1,0.8,0.1V35h-0.1
				c0,0-0.3-0.1-0.7-0.1c-0.8,0-1.1,0.7-1.1,1.9c0,1.2,0.3,1.9,1.1,1.9c0.4,0,0.7-0.1,0.7-0.1h0.1V39.1z"/>
			<path class="st0" d="M205.3,39c0,0-0.5,0.2-1.1,0.2c-0.7,0-1.2-0.2-1.4-0.6c-0.3-0.4-0.4-1.1-0.4-1.9c0-1.5,0.4-2.5,1.6-2.5
				c0.6,0,1,0.2,1.2,0.7c0.3,0.5,0.3,1.2,0.3,2H203c0,1.2,0.4,1.7,1.2,1.7c0.5,0,1-0.2,1-0.2h0.1V39z M204.8,36.4
				c0-1.1-0.2-1.6-0.8-1.6c-0.6,0-0.9,0.7-0.9,1.6H204.8z"/>
			<path class="st0" d="M211.6,32.3v6.9h-0.5l-0.2-0.8c-0.1,0.5-0.5,0.8-1.2,0.8c-0.5,0-0.9-0.2-1.1-0.6c-0.3-0.4-0.4-1-0.4-1.9
				c0-0.9,0.1-1.5,0.4-1.9c0.2-0.4,0.7-0.6,1.2-0.6c0.6,0,0.9,0.3,1.1,0.7v-2.7H211.6z M209.2,35.2c-0.2,0.3-0.3,0.8-0.3,1.6
				c0,0.8,0.1,1.3,0.3,1.6c0.2,0.2,0.4,0.4,0.7,0.4c0.3,0,0.6-0.1,0.7-0.4c0.2-0.3,0.3-0.8,0.3-1.6c0-0.8-0.1-1.3-0.3-1.6
				c-0.2-0.2-0.4-0.4-0.7-0.4C209.6,34.8,209.3,34.9,209.2,35.2z"/>
			<path class="st0" d="M215.5,39c0,0-0.5,0.2-1.1,0.2c-0.7,0-1.2-0.2-1.4-0.6c-0.3-0.4-0.4-1.1-0.4-1.9c0-1.5,0.4-2.5,1.6-2.5
				c0.6,0,1,0.2,1.2,0.7c0.3,0.5,0.3,1.2,0.3,2h-2.4c0,1.2,0.4,1.7,1.2,1.7c0.5,0,1-0.2,1-0.2h0.1V39z M215,36.4
				c0-1.1-0.2-1.6-0.8-1.6c-0.6,0-0.9,0.7-0.9,1.6H215z"/>
			<path class="st0" d="M219.5,32.5v6.1h2v0.6h-2.7v-6.7H219.5z"/>
			<path class="st0" d="M224.6,39.2l-0.2-0.7c-0.1,0.5-0.5,0.8-1.1,0.8c-0.5,0-0.9-0.2-1.1-0.5c-0.2-0.3-0.2-0.7-0.2-1.3v-3.1h0.7
				v3.1c0,0.4,0,0.6,0.2,0.8c0.1,0.2,0.3,0.3,0.7,0.3c0.7,0,0.8-0.7,0.8-1v-3.3h0.7v4.8H224.6z"/>
			<path class="st0" d="M226.9,34.3l0.9,1.8l0.9-1.8h0.7l-1.2,2.3l1.3,2.5h-0.8l-1-2l-1,2h-0.7l1.3-2.5l-1.2-2.4H226.9z"/>
			<path class="st0" d="M232.8,39c0,0-0.5,0.2-1.1,0.2c-0.7,0-1.2-0.2-1.4-0.6c-0.3-0.4-0.4-1.1-0.4-1.9c0-1.5,0.4-2.5,1.6-2.5
				c0.6,0,1,0.2,1.2,0.7c0.3,0.5,0.3,1.2,0.3,2h-2.4c0,1.2,0.4,1.7,1.2,1.7c0.5,0,1-0.2,1-0.2h0.1V39z M232.3,36.4
				c0-1.1-0.2-1.6-0.8-1.6c-0.6,0-0.9,0.7-0.9,1.6H232.3z"/>
			<path class="st0" d="M234.6,34.3l0.2,0.7c0.1-0.5,0.4-0.8,1.1-0.8c0.6,0,1,0.3,1.2,0.8c0.1-0.5,0.5-0.8,1.2-0.8
				c0.6,0,0.9,0.2,1.1,0.5c0.2,0.3,0.2,0.7,0.2,1.2v3.2h-0.7V36c0-0.4,0-0.6-0.1-0.8c-0.1-0.2-0.3-0.3-0.7-0.3c-0.8,0-0.8,0.7-0.8,1
				v3.3h-0.7V36c0-0.4,0-0.6-0.1-0.8c-0.1-0.2-0.3-0.3-0.7-0.3c-0.8,0-0.8,0.7-0.8,1v3.3h-0.7v-4.8H234.6z"/>
			<path class="st0" d="M241.3,32.3V35c0.1-0.4,0.5-0.8,1.1-0.8c0.5,0,0.8,0.2,1.1,0.5c0.3,0.4,0.5,1,0.5,2c0,0.9-0.1,1.5-0.4,1.9
				c-0.3,0.4-0.7,0.6-1.2,0.6c-0.6,0-1-0.3-1.1-0.8l-0.2,0.7h-0.4v-6.9H241.3z M241.6,35.2c-0.2,0.3-0.3,0.8-0.3,1.6
				c0,0.8,0.1,1.3,0.3,1.6c0.2,0.2,0.4,0.4,0.7,0.4c0.3,0,0.6-0.1,0.7-0.4c0.2-0.3,0.3-0.8,0.3-1.6c0-0.8-0.1-1.3-0.3-1.6
				c-0.2-0.2-0.4-0.4-0.7-0.4C242,34.8,241.7,34.9,241.6,35.2z"/>
			<path class="st0" d="M247.9,38.7c-0.3,0.4-0.7,0.6-1.3,0.6c-0.6,0-1-0.2-1.3-0.6c-0.3-0.4-0.4-1-0.4-1.9c0-1,0.1-1.6,0.4-2
				c0.3-0.4,0.7-0.6,1.3-0.6c0.5,0,1,0.2,1.3,0.6c0.3,0.4,0.4,1,0.4,1.9C248.3,37.7,248.2,38.3,247.9,38.7z M247.3,38.4
				c0.2-0.3,0.3-0.7,0.3-1.6c0-0.9-0.1-1.3-0.3-1.6c-0.1-0.2-0.4-0.4-0.7-0.4c-0.3,0-0.6,0.1-0.7,0.4c-0.2,0.3-0.3,0.7-0.3,1.6
				c0,0.9,0.1,1.3,0.3,1.6c0.1,0.2,0.4,0.4,0.7,0.4C246.9,38.7,247.1,38.6,247.3,38.4z"/>
			<path class="st0" d="M251.9,39.2l-0.2-0.7c-0.1,0.5-0.5,0.8-1.1,0.8c-0.5,0-0.9-0.2-1.1-0.5c-0.2-0.3-0.2-0.7-0.2-1.3v-3.1h0.7
				v3.1c0,0.4,0,0.6,0.2,0.8c0.1,0.2,0.3,0.3,0.7,0.3c0.7,0,0.8-0.7,0.8-1v-3.3h0.7v4.8H251.9z"/>
			<path class="st0" d="M255.6,35c0,0-0.2,0-0.4,0c-0.8,0-0.9,0.7-0.9,1.1v3.1h-0.7v-4.8h0.5l0.2,0.8c0.2-0.7,0.6-0.8,1.2-0.8h0.1
				V35z"/>
			<path class="st0" d="M257.6,37.3c-0.2,0-0.3,0-0.5-0.1c-0.1,0.1-0.3,0.2-0.3,0.5c0,0.4,0.4,0.4,0.6,0.4h0.6c0.2,0,0.6,0,0.9,0.2
				c0.3,0.2,0.5,0.5,0.5,1c0,1-0.7,1.5-2,1.5c-1.1,0-1.6-0.4-1.6-1.2c0-0.9,0.7-1,0.7-1c0,0-0.5-0.1-0.5-0.7c0-0.6,0.5-0.7,0.7-0.8
				c-0.4-0.2-0.7-0.7-0.7-1.4c0-1,0.5-1.6,1.4-1.6c0.4,0,0.8,0.1,1,0.3c0.2-0.5,0.6-0.5,0.8-0.5h0.1v0.7c0,0-0.1,0-0.3,0
				c-0.2,0-0.3,0-0.4,0.1c0.1,0.2,0.2,0.6,0.2,1C259.1,36.8,258.6,37.3,257.6,37.3z M256.9,38.8c0,0-0.4,0.2-0.4,0.8
				c0,0.5,0.3,0.8,1,0.8c0.8,0,1.2-0.3,1.2-0.9c0-0.4-0.2-0.5-0.4-0.6c-0.2,0-0.3-0.1-0.4-0.1H256.9z M258.4,35.8c0-0.7-0.2-1-0.8-1
				c-0.5,0-0.8,0.3-0.8,1c0,0.7,0.2,1,0.8,1C258.2,36.8,258.4,36.5,258.4,35.8z"/>
		</g>
		<g>
			<path class="st1" d="M159.5,46.8c-0.2,0-0.5-0.2-0.5-0.4v-30c0-0.2,0.3-0.4,0.5-0.4s0.5,0.2,0.5,0.4v30
				C160,46.7,159.7,46.8,159.5,46.8z"/>
		</g>
	</g>
	<g id="symbol">
		<g>
			<path class="st1" d="M98,29.7v15.5c0,0-3.6,1.1-7.7,1.1c-8.9,0-12.4-5.4-12.4-14.8c0-9.8,3.7-15.4,13.4-15.4
				c3.1,0,5.8,0.6,5.8,0.6v5.5H97c0,0-2.6-0.7-5.2-0.7c-5.2,0-6.7,2.8-6.7,9.6c0,6.7,1.5,10,5.2,10c0.7,0,1.5-0.1,1.5-0.1v-5.8h-3
				v-5.5H98z"/>
			<path class="st1" d="M109.1,16.4V46h-6.9V16.4H109.1z"/>
			<path class="st1" d="M122.1,16.4c1.9,0,4.5,0.1,6.7,1.3c2.6,1.5,4.2,4.3,4.2,9c0,4.8-1.7,7.7-4.2,9.2c-2.1,1.3-4.6,1.5-6.7,1.5
				h-1.3V46h-6.9V16.4H122.1z M120.8,31.9h1.3c0.7,0,1.7,0,2.4-0.6c0.9-0.7,1.3-2.2,1.3-4.4c0-2.4-0.5-3.8-1.3-4.4
				c-0.7-0.5-1.6-0.6-2.4-0.6h-1.3V31.9z"/>
			<path class="st1" d="M143.5,16.4v23.9h7.3V46h-14.2V16.4H143.5z"/>
		</g>
		<g>
			<path class="st0" d="M7,31.2C7,17.9,17.9,7,31.2,7c6.7,0,12.7,2.7,17.1,7.1l5-5C47.6,3.5,39.8,0,31.2,0C14,0,0,14,0,31.2
				c0,8.6,3.5,16.4,9.1,22.1l5-5C9.7,43.9,7,37.9,7,31.2z"/>
			<path class="st0" d="M31.2,48.3c4.7,0,8.9-1.9,12-4.9l-4.7-4.8c-1.9,1.8-4.5,3-7.3,3c-2.9,0-5.5-1.2-7.3-3l-4.7,4.7
				C22.2,46.4,26.5,48.3,31.2,48.3z"/>
			<path class="st0" d="M43.3,19.1l-4.7,4.9C39.7,25,40.5,26,41,28H30v7h17.9c0.2-1,0.4-2.5,0.4-3.7C48.3,26.6,46.4,22.2,43.3,19.1z
				"/>
			<path class="st1" d="M62.2,28H48c0.2,1,0.3,2.2,0.3,3.4c0,1.2-0.1,2.6-0.4,3.6h7.2c-1.7,11-11.8,20.5-23.9,20.5
				c-6.7,0-12.8-2.8-17.1-7.2l-5,4.9c5.7,5.7,13.5,9.2,22.1,9.2c17.2,0,31.2-13.8,31.2-31.1C62.4,30.2,62.4,29,62.2,28z"/>
			<path class="st1" d="M31.2,14C21.7,14,14,21.7,14,31.1c0,4.8,1.9,9.1,5.1,12.2l4.7-4.7c-1.9-1.9-3.1-4.5-3.1-7.4
				c0-5.8,4.7-10.5,10.5-10.5c2.9,0,5.5,1.2,7.4,3.1l4.7-4.7C40.2,15.9,35.9,14,31.2,14z"/>
		</g>
	</g>
</g>
</svg>
